#!OML:ASF I:\Actors\actors\Patient Classification 2\Patient 1\Session 1\actor1.ASF
:FULLY-SPECIFIED
:DEGREES
377
root -0.598527 18.7488 5.61787 4.54237 -6.45432 -3.07118
lowerback 5.84871 0.903024 -3.37386
upperback -1.71787 0.977951 0.731319
thorax -5.14005 0.603238 2.55546
lowerneck -6.70896 -7.80881 -4.24518
upperneck 20.498 -14.5994 19.1125
head 9.35512 -5.60911 5.70694
rclavicle -2.98177e-016 7.15625e-015
rhumerus 3.12412 40.3589 -37.4375
rradius 102.217
rwrist -17.4213
rhand -15.001 -22.8261
rfingers 7.12502
rthumb 11.1638 -52.5092
lclavicle -2.98177e-016 7.15625e-015
lhumerus -7.08858 26.9589 74.5812
lradius 127.784
lwrist 105.239
lhand -32.4606 -30.5099
lfingers 7.12502
lthumb -5.69342 -0.606404
rfemur 0 0 0
rtibia 0
rfoot 0 0
rtoes 0
lfemur -6.41508 -5.36337 -11.6204
ltibia 22.2783
lfoot -26.3068 18.2443
ltoes -52.7766
378
root -0.597663 18.7481 5.6175 4.54098 -6.43019 -3.09182
lowerback 5.56698 0.87545 -3.46918
upperback -1.52622 0.949917 0.810618
thorax -4.78084 0.584584 2.69857
lowerneck -6.83265 -7.78155 -4.37315
upperneck 20.3773 -14.5254 19.1475
head 9.33839 -5.58122 5.74247
rclavicle -1.02623e-014 -3.57812e-015
rhumerus 3.40481 39.7436 -37.0516
rradius 102
rwrist -16.8693
rhand -14.8145 -22.6811
rfingers 7.12502
rthumb 11.3436 -52.3543
lclavicle -1.02623e-014 -3.57812e-015
lhumerus -6.79695 27.21 74.6808
lradius 127.774
lwrist 105.253
lhand -32.5318 -30.5239
lfingers 7.12502
lthumb -5.7622 -0.622278
rfemur 0 0 0
rtibia 0
rfoot 0 0
rtoes 0
lfemur -6.40977 -5.42648 -11.5948
ltibia 22.2615
lfoot -26.3403 18.2211
ltoes -52.696
379
root -0.596616 18.7477 5.61623 4.5514 -6.41 -3.06597
lowerback 5.78069 0.899461 -3.43535
upperback -1.69569 0.972652 0.763193
thorax -5.07966 0.601766 2.6247
lowerneck -6.68349 -7.79524 -4.4006
upperneck 20.4254 -14.5421 19.1192
head 9.32751 -5.59962 5.74208
rclavicle -1.78161e-014 -2.10712e-014
rhumerus 2.04647 39.008 -38.1086
rradius 101.875
rwrist -15.7779
rhand -14.0006 -21.927
rfingers 7.12502
rthumb 12.1285 -51.5555
lclavicle -1.78161e-014 -2.10712e-014
lhumerus -6.98614 27.2052 74.4542
lradius 127.768
lwrist 105.333
lhand -32.5492 -30.6479
lfingers 7.12502
lthumb -5.77901 -0.746666
rfemur 0 0 0
rtibia 0
rfoot 0 0
rtoes 0
lfemur -6.42887 -5.44801 -11.6168
ltibia 22.2486
lfoot -26.3427 18.1781
ltoes -52.6519
380
root -0.596043 18.7478 5.61378 4.55587 -6.40542 -3.0194
lowerback 5.45829 0.8503 -3.67582
upperback -1.47284 0.907791 0.85197
thorax -4.66506 0.567396 2.86349
lowerneck -6.88717 -7.7577 -4.47162
upperneck 20.3653 -14.4434 19.0253
head 9.32801 -5.55817 5.72305
rclavicle 2.08724e-015 3.97569e-015
rhumerus 3.27028 38.6702 -37.0465
rradius 101.601
rwrist -15.5422
rhand -13.9164 -21.7931
rfingers 7.12502
rthumb 12.2097 -51.4167
lclavicle 2.08724e-015 3.97569e-015
lhumerus -6.5862 27.7074 74.591
lradius 127.782
lwrist 105.371
lhand -32.5959 -30.7461
lfingers 7.12502
lthumb -5.82405 -0.846179
rfemur 0 0 0
rtibia 0
rfoot 0 0
rtoes 0
lfemur -6.44299 -5.43096 -11.6568
ltibia 22.2423
lfoot -26.2924 18.0906
ltoes -52.6498
381
root -0.596139 18.7474 5.60951 4.55257 -6.38852 -3.06038
lowerback 5.5202 0.850427 -3.6265
upperback -1.4984 0.907547 0.822528
thorax -4.72537 0.566918 2.80436
lowerneck -6.87664 -7.75458 -4.49236
upperneck 20.4357 -14.4466 19.0098
head 9.35102 -5.55913 5.72328
rclavicle -1.16289e-014 1.63003e-014
rhumerus 3.95449 38.3853 -36.5038
rradius 101.385
rwrist -14.8478
rhand -13.9966 -21.7465
rfingers 7.12502
rthumb 12.1324 -51.3747
lclavicle -1.16289e-014 1.63003e-014
lhumerus -6.50355 27.9753 74.5391
lradius 127.867
lwrist 105.401
lhand -32.6841 -30.6724
lfingers 7.12502
lthumb -5.90921 -0.774785
rfemur 0 0 0
rtibia 0
rfoot 0 0
rtoes 0
lfemur -6.45465 -5.39691 -11.5931
ltibia 22.2469
lfoot -26.1908 17.9787
ltoes -52.6348
382
root -0.597327 18.7475 5.60447 4.55895 -6.34878 -3.16662
lowerback 5.61295 0.854972 -3.5202
upperback -1.54222 0.917202 0.816252
thorax -4.82235 0.570937 2.73588
lowerneck -6.86343 -7.71845 -4.52754
upperneck 20.4703 -14.3983 19.0206
head 9.35691 -5.53716 5.74141
rclavicle 5.7896e-015 7.95139e-015
rhumerus 4.75467 38.0794 -35.911
rradius 101.221
rwrist -13.8395
rhand -14.0693 -21.8905
rfingers 7.12502
rthumb 12.0622 -51.5229
lclavicle 5.7896e-015 7.95139e-015
lhumerus -6.43585 28.2277 74.4917
lradius 127.919
lwrist 105.351
lhand -32.6748 -30.626
lfingers 7.12502
lthumb -5.90021 -0.728183
rfemur 0 0 0
rtibia 0
rfoot 0 0
rtoes 0
lfemur -6.48743 -5.30714 -11.4464
ltibia 22.256
lfoot -26.0669 17.8564
ltoes -52.633
383
root -0.598887 18.7483 5.59953 4.59344 -6.30855 -3.20075
lowerback 5.78205 0.898631 -3.42321
upperback -1.66114 0.972389 0.753944
thorax -5.04379 0.599962 2.60842
lowerneck -6.90655 -7.69696 -4.52194
upperneck 20.582 -14.3658 18.9218
head 9.39018 -5.52008 5.71091
rclavicle -1.38901e-014 -3.97569e-016
rhumerus 5.40104 37.7788 -35.4693
rradius 101.197
rwrist -12.5682
rhand -13.723 -22.1003
rfingers 7.12502
rthumb 12.3962 -51.7128
lclavicle -1.38901e-014 -3.97569e-016
lhumerus -6.44966 28.3862 74.3575
lradius 127.904
lwrist 105.223
lhand -32.6155 -30.397
lfingers 7.12502
lthumb -5.84301 -0.497578
rfemur 0 0 0
rtibia 0
rfoot 0 0
rtoes 0
lfemur -6.56023 -5.2273 -11.3732
ltibia 22.2589
lfoot -25.9857 17.7202
ltoes -52.614
384
root -0.600285 18.7483 5.59432 4.62975 -6.2856 -3.15373
lowerback 5.84982 0.957946 -3.20215
upperback -1.71688 1.05448 0.52474
thorax -5.13694 0.631983 2.23565
lowerneck -7.01715 -7.67329 -4.31516
upperneck 20.6516 -14.3345 18.7563
head 9.40243 -5.49236 5.6175
rclavicle -3.42904e-015 1.31198e-014
rhumerus 6.10898 37.2961 -35.3062
rradius 101.264
rwrist -10.7224
rhand -13.218 -22.4484
rfingers 7.12502
rthumb 12.883 -52.0308
lclavicle -3.42904e-015 1.31198e-014
lhumerus -6.27145 28.4956 74.1786
lradius 127.735
lwrist 104.991
lhand -32.5026 -29.9569
lfingers 7.12502
lthumb -5.73401 -0.0545084
rfemur 0 0 0
rtibia 0
rfoot 0 0
rtoes 0
lfemur -6.63053 -5.20784 -11.3966
ltibia 22.2472
lfoot -25.9188 17.6293
ltoes -52.5611
385
root -0.602628 18.748 5.5886 4.64713 -6.29006 -3.08039
lowerback 6.03615 1.01428 -3.18773
upperback -1.84583 1.11553 0.382566
thorax -5.3787 0.664457 2.06953
lowerneck -6.94984 -7.59436 -4.14046
upperneck 20.7382 -14.1963 18.5003
head 9.36444 -5.43473 5.51832
rclavicle 4.37326e-015 7.95139e-016
rhumerus 7.07182 37.0109 -35.0955
rradius 101.475
rwrist -8.19138
rhand -13.1901 -23.2644
rfingers 7.12502
rthumb 12.9099 -52.8451
lclavicle 4.37326e-015 7.95139e-016
lhumerus -6.26695 28.7882 74.0612
lradius 127.444
lwrist 104.851
lhand -32.2983 -29.5572
lfingers 7.12502
lthumb -5.53678 0.350511
rfemur 0 0 0
rtibia 0
rfoot 0 0
rtoes 0
lfemur -6.66574 -5.19584 -11.4583
ltibia 22.2188
lfoot -25.8337 17.5915
ltoes -52.5141
386
root -0.605629 18.7483 5.58223 4.66728 -6.3271 -3.01239
lowerback 5.87186 1.02165 -3.12945
upperback -1.76635 1.12691 0.185915
thorax -5.19685 0.661046 1.83397
lowerneck -6.90731 -7.44564 -3.91158
upperneck 20.7176 -13.9658 18.3326
head 9.28642 -5.32806 5.44963
rclavicle 1.0138e-014 7.95139e-016
rhumerus 8.52965 36.6833 -34.9568
rradius 101.785
rwrist -5.33141
rhand -13.3286 -24.5478
rfingers 7.12502
rthumb 12.7765 -54.1369
lclavicle 1.0138e-014 7.95139e-016
lhumerus -5.92868 29.241 73.9374
lradius 127.032
lwrist 104.982
lhand -32.3012 -29.458
lfingers 7.12502
lthumb -5.53953 0.449557
rfemur 0 0 0
rtibia 0
rfoot 0 0
rtoes 0
lfemur -6.69532 -5.15396 -11.5202
ltibia 22.1909
lfoot -25.7968 17.5989
ltoes -52.5156
387
root -0.608258 18.7493 5.57536 4.68987 -6.36136 -2.95498
lowerback 6.03217 1.035 -3.14861
upperback -1.89473 1.12789 0.0385768
thorax -5.42009 0.664073 1.6877
lowerneck -6.90853 -7.31819 -3.75673
upperneck 20.9519 -13.7839 18.0634
head 9.3098 -5.24048 5.35671
rclavicle -1.55052e-014 1.19271e-014
rhumerus 10.0169 36.8047 -34.7623
rradius 102.263
rwrist -2.86608
rhand -13.2973 -25.9751
rfingers 7.12502
rthumb 12.8066 -55.5622
lclavicle -1.55052e-014 1.19271e-014
lhumerus -5.99981 29.5321 73.6868
lradius 126.662
lwrist 105.217
lhand -32.5059 -29.782
lfingers 7.12502
lthumb -5.73717 0.120381
rfemur 0 0 0
rtibia 0
rfoot 0 0
rtoes 0
lfemur -6.73367 -5.10798 -11.5732
ltibia 22.1767
lfoot -25.7901 17.6499
ltoes -52.6017
